<mxfile host="app.diagrams.net" modified="2023-10-24T18:53:22.483Z" agent="Mozilla/5.0 (Windows NT 10.0; Win64; x64; rv:109.0) Gecko/20100101 Firefox/118.0" etag="Vm2RIUuJRSZXGD7ybJwm" version="22.0.6" type="google">
  <diagram name="Page-1" id="AP4kPBNR-2Afs974_rxB">
    <mxGraphModel grid="1" page="1" gridSize="10" guides="1" tooltips="1" connect="1" arrows="1" fold="1" pageScale="1" pageWidth="827" pageHeight="1169" math="0" shadow="0">
      <root>
        <mxCell id="0" />
        <mxCell id="1" parent="0" />
        <mxCell id="80irdVn88_xW3fS0YwoT-164" style="edgeStyle=orthogonalEdgeStyle;rounded=0;orthogonalLoop=1;jettySize=auto;html=1;fillColor=#ffe6cc;strokeColor=#000000;endArrow=block;endFill=0;" edge="1" parent="1" source="80irdVn88_xW3fS0YwoT-162" target="80irdVn88_xW3fS0YwoT-131">
          <mxGeometry relative="1" as="geometry" />
        </mxCell>
        <mxCell id="80irdVn88_xW3fS0YwoT-162" value="" style="rounded=1;whiteSpace=wrap;html=1;fillColor=none;strokeColor=#171100;dashed=1;" vertex="1" parent="1">
          <mxGeometry x="990" y="770" width="350" height="190" as="geometry" />
        </mxCell>
        <mxCell id="80irdVn88_xW3fS0YwoT-61" value="" style="rounded=1;whiteSpace=wrap;html=1;fillColor=none;dashed=1;" vertex="1" parent="1">
          <mxGeometry x="-1110" y="280" width="880" height="350" as="geometry" />
        </mxCell>
        <mxCell id="80irdVn88_xW3fS0YwoT-32" value="" style="rounded=1;whiteSpace=wrap;html=1;fillColor=none;dashed=1;" vertex="1" parent="1">
          <mxGeometry x="340" y="420" width="425" height="110" as="geometry" />
        </mxCell>
        <mxCell id="G0yosXXr6ke0HUazRT5J-1" style="edgeStyle=orthogonalEdgeStyle;rounded=0;orthogonalLoop=1;jettySize=auto;html=1;" edge="1" parent="1" source="80irdVn88_xW3fS0YwoT-16" target="80irdVn88_xW3fS0YwoT-35">
          <mxGeometry relative="1" as="geometry">
            <mxPoint x="-130" y="410" as="targetPoint" />
          </mxGeometry>
        </mxCell>
        <mxCell id="80irdVn88_xW3fS0YwoT-16" value="Entity" style="rounded=1;whiteSpace=wrap;html=1;fillColor=#f5f5f5;fontColor=#333333;strokeColor=#666666;" vertex="1" parent="1">
          <mxGeometry x="354" y="310" width="120" height="60" as="geometry" />
        </mxCell>
        <mxCell id="80irdVn88_xW3fS0YwoT-27" style="edgeStyle=orthogonalEdgeStyle;rounded=0;orthogonalLoop=1;jettySize=auto;html=1;endArrow=block;endFill=0;" edge="1" parent="1" source="80irdVn88_xW3fS0YwoT-17" target="80irdVn88_xW3fS0YwoT-16">
          <mxGeometry relative="1" as="geometry">
            <Array as="points">
              <mxPoint x="-60" y="400" />
              <mxPoint x="414" y="400" />
            </Array>
          </mxGeometry>
        </mxCell>
        <mxCell id="80irdVn88_xW3fS0YwoT-17" value="Item" style="rounded=1;whiteSpace=wrap;html=1;fillColor=#dae8fc;strokeColor=#6c8ebf;" vertex="1" parent="1">
          <mxGeometry x="-120" y="440" width="120" height="60" as="geometry" />
        </mxCell>
        <mxCell id="80irdVn88_xW3fS0YwoT-28" style="edgeStyle=orthogonalEdgeStyle;rounded=0;orthogonalLoop=1;jettySize=auto;html=1;entryX=0.5;entryY=1;entryDx=0;entryDy=0;endArrow=block;endFill=0;startArrow=classic;startFill=1;" edge="1" parent="1" source="80irdVn88_xW3fS0YwoT-18" target="80irdVn88_xW3fS0YwoT-16">
          <mxGeometry relative="1" as="geometry">
            <Array as="points">
              <mxPoint x="180" y="400" />
              <mxPoint x="414" y="400" />
            </Array>
          </mxGeometry>
        </mxCell>
        <mxCell id="80irdVn88_xW3fS0YwoT-124" style="edgeStyle=orthogonalEdgeStyle;rounded=0;orthogonalLoop=1;jettySize=auto;html=1;entryX=0;entryY=0.5;entryDx=0;entryDy=0;endArrow=classic;endFill=1;startArrow=classic;startFill=1;" edge="1" parent="1" source="80irdVn88_xW3fS0YwoT-18" target="80irdVn88_xW3fS0YwoT-123">
          <mxGeometry relative="1" as="geometry">
            <Array as="points">
              <mxPoint x="310" y="710" />
            </Array>
          </mxGeometry>
        </mxCell>
        <mxCell id="G0yosXXr6ke0HUazRT5J-4" style="edgeStyle=orthogonalEdgeStyle;rounded=0;orthogonalLoop=1;jettySize=auto;html=1;" edge="1" parent="1" source="80irdVn88_xW3fS0YwoT-18" target="80irdVn88_xW3fS0YwoT-102">
          <mxGeometry relative="1" as="geometry" />
        </mxCell>
        <mxCell id="G0yosXXr6ke0HUazRT5J-5" style="edgeStyle=orthogonalEdgeStyle;rounded=0;orthogonalLoop=1;jettySize=auto;html=1;exitX=0.75;exitY=0;exitDx=0;exitDy=0;entryX=0.994;entryY=0.026;entryDx=0;entryDy=0;entryPerimeter=0;" edge="1" parent="1" source="80irdVn88_xW3fS0YwoT-18" target="80irdVn88_xW3fS0YwoT-18">
          <mxGeometry relative="1" as="geometry">
            <mxPoint x="210.1627906976746" y="630" as="targetPoint" />
            <Array as="points">
              <mxPoint x="210" y="650" />
              <mxPoint x="239" y="650" />
            </Array>
          </mxGeometry>
        </mxCell>
        <mxCell id="G0yosXXr6ke0HUazRT5J-7" style="edgeStyle=orthogonalEdgeStyle;rounded=0;orthogonalLoop=1;jettySize=auto;html=1;entryX=1;entryY=0.5;entryDx=0;entryDy=0;" edge="1" parent="1" source="80irdVn88_xW3fS0YwoT-18" target="om_5iVjqHlGBKNzXRzjz-2">
          <mxGeometry relative="1" as="geometry">
            <Array as="points">
              <mxPoint x="70" y="705" />
              <mxPoint x="70" y="600" />
            </Array>
          </mxGeometry>
        </mxCell>
        <mxCell id="G0yosXXr6ke0HUazRT5J-9" style="edgeStyle=orthogonalEdgeStyle;rounded=0;orthogonalLoop=1;jettySize=auto;html=1;entryX=1;entryY=0.5;entryDx=0;entryDy=0;" edge="1" parent="1" source="80irdVn88_xW3fS0YwoT-18" target="om_5iVjqHlGBKNzXRzjz-8">
          <mxGeometry relative="1" as="geometry">
            <mxPoint x="-50" y="650" as="targetPoint" />
            <Array as="points">
              <mxPoint x="70" y="705" />
              <mxPoint x="70" y="650" />
            </Array>
          </mxGeometry>
        </mxCell>
        <mxCell id="G0yosXXr6ke0HUazRT5J-11" style="edgeStyle=orthogonalEdgeStyle;rounded=0;orthogonalLoop=1;jettySize=auto;html=1;entryX=1;entryY=0.5;entryDx=0;entryDy=0;" edge="1" parent="1" source="80irdVn88_xW3fS0YwoT-18" target="om_5iVjqHlGBKNzXRzjz-7">
          <mxGeometry relative="1" as="geometry" />
        </mxCell>
        <mxCell id="G0yosXXr6ke0HUazRT5J-13" style="edgeStyle=orthogonalEdgeStyle;rounded=0;orthogonalLoop=1;jettySize=auto;html=1;entryX=1;entryY=0.5;entryDx=0;entryDy=0;" edge="1" parent="1" source="80irdVn88_xW3fS0YwoT-18" target="om_5iVjqHlGBKNzXRzjz-12">
          <mxGeometry relative="1" as="geometry">
            <Array as="points">
              <mxPoint x="70" y="705" />
              <mxPoint x="70" y="760" />
            </Array>
          </mxGeometry>
        </mxCell>
        <mxCell id="80irdVn88_xW3fS0YwoT-18" value="Property" style="rounded=1;whiteSpace=wrap;html=1;fillColor=#f8cecc;strokeColor=#b85450;" vertex="1" parent="1">
          <mxGeometry x="120" y="675" width="120" height="60" as="geometry" />
        </mxCell>
        <mxCell id="80irdVn88_xW3fS0YwoT-29" style="edgeStyle=orthogonalEdgeStyle;rounded=0;orthogonalLoop=1;jettySize=auto;html=1;entryX=0.5;entryY=1;entryDx=0;entryDy=0;endArrow=block;endFill=0;" edge="1" parent="1" source="80irdVn88_xW3fS0YwoT-19" target="80irdVn88_xW3fS0YwoT-16">
          <mxGeometry relative="1" as="geometry" />
        </mxCell>
        <mxCell id="80irdVn88_xW3fS0YwoT-19" value="Lexeme" style="rounded=1;whiteSpace=wrap;html=1;fillColor=#d5e8d4;strokeColor=#82b366;" vertex="1" parent="1">
          <mxGeometry x="354" y="440" width="120" height="60" as="geometry" />
        </mxCell>
        <mxCell id="80irdVn88_xW3fS0YwoT-30" style="edgeStyle=orthogonalEdgeStyle;rounded=0;orthogonalLoop=1;jettySize=auto;html=1;endArrow=block;endFill=0;" edge="1" parent="1" source="80irdVn88_xW3fS0YwoT-20" target="80irdVn88_xW3fS0YwoT-16">
          <mxGeometry relative="1" as="geometry">
            <Array as="points">
              <mxPoint x="550" y="400" />
              <mxPoint x="414" y="400" />
            </Array>
          </mxGeometry>
        </mxCell>
        <mxCell id="80irdVn88_xW3fS0YwoT-20" value="Form" style="rounded=1;whiteSpace=wrap;html=1;fillColor=#d5e8d4;strokeColor=#82b366;" vertex="1" parent="1">
          <mxGeometry x="490" y="440" width="120" height="60" as="geometry" />
        </mxCell>
        <mxCell id="80irdVn88_xW3fS0YwoT-31" style="edgeStyle=orthogonalEdgeStyle;rounded=0;orthogonalLoop=1;jettySize=auto;html=1;endArrow=block;endFill=0;" edge="1" parent="1" source="80irdVn88_xW3fS0YwoT-21" target="80irdVn88_xW3fS0YwoT-16">
          <mxGeometry relative="1" as="geometry">
            <Array as="points">
              <mxPoint x="690" y="400" />
              <mxPoint x="414" y="400" />
            </Array>
          </mxGeometry>
        </mxCell>
        <mxCell id="80irdVn88_xW3fS0YwoT-21" value="Sense" style="rounded=1;whiteSpace=wrap;html=1;fillColor=#d5e8d4;strokeColor=#82b366;" vertex="1" parent="1">
          <mxGeometry x="630" y="440" width="120" height="60" as="geometry" />
        </mxCell>
        <mxCell id="80irdVn88_xW3fS0YwoT-33" value="&lt;div&gt;Lexicographical data&lt;/div&gt;&lt;div&gt;&lt;br&gt;&lt;/div&gt;" style="text;html=1;strokeColor=none;fillColor=none;align=center;verticalAlign=middle;whiteSpace=wrap;rounded=0;" vertex="1" parent="1">
          <mxGeometry x="490" y="510" width="140" height="30" as="geometry" />
        </mxCell>
        <mxCell id="80irdVn88_xW3fS0YwoT-36" style="edgeStyle=orthogonalEdgeStyle;rounded=0;orthogonalLoop=1;jettySize=auto;html=1;entryX=0;entryY=0.5;entryDx=0;entryDy=0;endArrow=block;endFill=0;exitX=1;exitY=0.5;exitDx=0;exitDy=0;" edge="1" parent="1" source="80irdVn88_xW3fS0YwoT-35" target="80irdVn88_xW3fS0YwoT-17">
          <mxGeometry relative="1" as="geometry" />
        </mxCell>
        <mxCell id="80irdVn88_xW3fS0YwoT-40" style="edgeStyle=orthogonalEdgeStyle;rounded=0;orthogonalLoop=1;jettySize=auto;html=1;endArrow=none;endFill=0;" edge="1" parent="1">
          <mxGeometry relative="1" as="geometry">
            <mxPoint x="-331.4885057471263" y="450" as="sourcePoint" />
            <mxPoint x="-331.5" y="430" as="targetPoint" />
            <Array as="points">
              <mxPoint x="-331.5" y="420" />
            </Array>
          </mxGeometry>
        </mxCell>
        <mxCell id="80irdVn88_xW3fS0YwoT-35" value="Class/Metaclass" style="rounded=1;whiteSpace=wrap;html=1;fillColor=#dae8fc;strokeColor=#6c8ebf;" vertex="1" parent="1">
          <mxGeometry x="-371.5" y="440" width="120" height="60" as="geometry" />
        </mxCell>
        <mxCell id="80irdVn88_xW3fS0YwoT-41" style="edgeStyle=orthogonalEdgeStyle;rounded=0;orthogonalLoop=1;jettySize=auto;html=1;endArrow=block;endFill=0;" edge="1" parent="1" target="80irdVn88_xW3fS0YwoT-35">
          <mxGeometry relative="1" as="geometry">
            <mxPoint x="-351.5" y="410" as="targetPoint" />
            <mxPoint x="-331.5" y="420" as="sourcePoint" />
            <Array as="points">
              <mxPoint x="-331.5" y="420" />
              <mxPoint x="-351.5" y="420" />
            </Array>
          </mxGeometry>
        </mxCell>
        <mxCell id="80irdVn88_xW3fS0YwoT-39" value="" style="ellipse;whiteSpace=wrap;html=1;" vertex="1" parent="1">
          <mxGeometry x="-311.5" y="400" height="20" as="geometry" />
        </mxCell>
        <mxCell id="80irdVn88_xW3fS0YwoT-62" value="&lt;div&gt;Root Class&lt;/div&gt;&lt;div&gt;(Entity)&lt;/div&gt;" style="rounded=1;whiteSpace=wrap;html=1;fillColor=#d5e8d4;strokeColor=#82b366;" vertex="1" parent="1">
          <mxGeometry x="-831.5" y="555" width="120" height="60" as="geometry" />
        </mxCell>
        <mxCell id="80irdVn88_xW3fS0YwoT-100" style="edgeStyle=orthogonalEdgeStyle;rounded=0;orthogonalLoop=1;jettySize=auto;html=1;entryX=0;entryY=0.25;entryDx=0;entryDy=0;" edge="1" parent="1" source="80irdVn88_xW3fS0YwoT-63" target="80irdVn88_xW3fS0YwoT-66">
          <mxGeometry relative="1" as="geometry" />
        </mxCell>
        <mxCell id="80irdVn88_xW3fS0YwoT-63" value="&lt;a title=&quot;Q16889133&quot; href=&quot;https://www.wikidata.org/wiki/Q16889133&quot;&gt;class &lt;small&gt;(Q16889133)&lt;/small&gt;&lt;/a&gt;" style="rounded=1;whiteSpace=wrap;html=1;fillColor=#e1d5e7;strokeColor=#9673a6;" vertex="1" parent="1">
          <mxGeometry x="-971.5" y="310" width="120" height="60" as="geometry" />
        </mxCell>
        <mxCell id="80irdVn88_xW3fS0YwoT-80" style="edgeStyle=orthogonalEdgeStyle;rounded=0;orthogonalLoop=1;jettySize=auto;html=1;exitX=0.25;exitY=1;exitDx=0;exitDy=0;entryX=0.25;entryY=0;entryDx=0;entryDy=0;endArrow=classic;endFill=1;" edge="1" parent="1" source="80irdVn88_xW3fS0YwoT-64" target="80irdVn88_xW3fS0YwoT-66">
          <mxGeometry relative="1" as="geometry" />
        </mxCell>
        <mxCell id="80irdVn88_xW3fS0YwoT-64" value="&lt;a title=&quot;Q19361238&quot; href=&quot;https://www.wikidata.org/wiki/Q19361238&quot;&gt;Wikidata metaclass &lt;small&gt;(Q19361238)&lt;/small&gt;&lt;/a&gt;" style="rounded=1;whiteSpace=wrap;html=1;fillColor=#e1d5e7;strokeColor=#9673a6;" vertex="1" parent="1">
          <mxGeometry x="-681.5" y="310" width="120" height="60" as="geometry" />
        </mxCell>
        <mxCell id="80irdVn88_xW3fS0YwoT-68" style="edgeStyle=orthogonalEdgeStyle;rounded=0;orthogonalLoop=1;jettySize=auto;html=1;entryX=0.5;entryY=1;entryDx=0;entryDy=0;" edge="1" parent="1" source="80irdVn88_xW3fS0YwoT-65" target="80irdVn88_xW3fS0YwoT-63">
          <mxGeometry relative="1" as="geometry" />
        </mxCell>
        <mxCell id="80irdVn88_xW3fS0YwoT-78" style="edgeStyle=orthogonalEdgeStyle;rounded=0;orthogonalLoop=1;jettySize=auto;html=1;entryX=0;entryY=0.5;entryDx=0;entryDy=0;endArrow=block;endFill=0;startArrow=classic;startFill=1;" edge="1" parent="1" source="80irdVn88_xW3fS0YwoT-65" target="80irdVn88_xW3fS0YwoT-62">
          <mxGeometry relative="1" as="geometry">
            <Array as="points">
              <mxPoint x="-911.5" y="585" />
            </Array>
          </mxGeometry>
        </mxCell>
        <mxCell id="80irdVn88_xW3fS0YwoT-65" value="Class" style="rounded=1;whiteSpace=wrap;html=1;fillColor=#fff2cc;strokeColor=#d6b656;" vertex="1" parent="1">
          <mxGeometry x="-971.5" y="425" width="120" height="60" as="geometry" />
        </mxCell>
        <mxCell id="80irdVn88_xW3fS0YwoT-70" style="edgeStyle=orthogonalEdgeStyle;rounded=0;orthogonalLoop=1;jettySize=auto;html=1;entryX=0.5;entryY=1;entryDx=0;entryDy=0;" edge="1" parent="1" source="80irdVn88_xW3fS0YwoT-66" target="80irdVn88_xW3fS0YwoT-64">
          <mxGeometry relative="1" as="geometry" />
        </mxCell>
        <mxCell id="80irdVn88_xW3fS0YwoT-79" style="edgeStyle=orthogonalEdgeStyle;rounded=0;orthogonalLoop=1;jettySize=auto;html=1;entryX=1;entryY=0.5;entryDx=0;entryDy=0;endArrow=block;endFill=0;startArrow=classic;startFill=1;" edge="1" parent="1" source="80irdVn88_xW3fS0YwoT-66" target="80irdVn88_xW3fS0YwoT-62">
          <mxGeometry relative="1" as="geometry">
            <Array as="points">
              <mxPoint x="-621.5" y="585" />
            </Array>
          </mxGeometry>
        </mxCell>
        <mxCell id="80irdVn88_xW3fS0YwoT-96" style="edgeStyle=orthogonalEdgeStyle;rounded=0;orthogonalLoop=1;jettySize=auto;html=1;" edge="1" parent="1" source="80irdVn88_xW3fS0YwoT-66" target="80irdVn88_xW3fS0YwoT-65">
          <mxGeometry relative="1" as="geometry" />
        </mxCell>
        <mxCell id="80irdVn88_xW3fS0YwoT-66" value="Metaclass" style="rounded=1;whiteSpace=wrap;html=1;fillColor=#e1d5e7;strokeColor=#9673a6;" vertex="1" parent="1">
          <mxGeometry x="-681.5" y="425" width="120" height="60" as="geometry" />
        </mxCell>
        <mxCell id="80irdVn88_xW3fS0YwoT-71" value="instance of " style="text;html=1;strokeColor=none;fillColor=none;align=center;verticalAlign=middle;whiteSpace=wrap;rounded=0;" vertex="1" parent="1">
          <mxGeometry x="-631.5" y="365" width="103" height="30" as="geometry" />
        </mxCell>
        <mxCell id="80irdVn88_xW3fS0YwoT-82" value="instance of " style="text;html=1;strokeColor=none;fillColor=none;align=center;verticalAlign=middle;whiteSpace=wrap;rounded=0;" vertex="1" parent="1">
          <mxGeometry x="-921.5" y="370" width="103" height="30" as="geometry" />
        </mxCell>
        <mxCell id="80irdVn88_xW3fS0YwoT-83" value="is a" style="text;html=1;strokeColor=none;fillColor=none;align=center;verticalAlign=middle;whiteSpace=wrap;rounded=0;" vertex="1" parent="1">
          <mxGeometry x="-721.5" y="400" width="103" height="30" as="geometry" />
        </mxCell>
        <mxCell id="80irdVn88_xW3fS0YwoT-88" value="is a" style="text;html=1;strokeColor=none;fillColor=none;align=center;verticalAlign=middle;whiteSpace=wrap;rounded=0;" vertex="1" parent="1">
          <mxGeometry x="-881.5" y="450" width="103" height="30" as="geometry" />
        </mxCell>
        <mxCell id="80irdVn88_xW3fS0YwoT-89" value="subclass of" style="text;html=1;strokeColor=none;fillColor=none;align=center;verticalAlign=middle;whiteSpace=wrap;rounded=0;" vertex="1" parent="1">
          <mxGeometry x="-716.5" y="585" width="103" height="30" as="geometry" />
        </mxCell>
        <mxCell id="80irdVn88_xW3fS0YwoT-90" value="is a" style="text;html=1;strokeColor=none;fillColor=none;align=center;verticalAlign=middle;whiteSpace=wrap;rounded=0;" vertex="1" parent="1">
          <mxGeometry x="-651.5" y="485" width="103" height="30" as="geometry" />
        </mxCell>
        <mxCell id="80irdVn88_xW3fS0YwoT-91" value="subclass of" style="text;html=1;strokeColor=none;fillColor=none;align=center;verticalAlign=middle;whiteSpace=wrap;rounded=0;" vertex="1" parent="1">
          <mxGeometry x="-934.5" y="585" width="103" height="30" as="geometry" />
        </mxCell>
        <mxCell id="80irdVn88_xW3fS0YwoT-92" value="is a" style="text;html=1;strokeColor=none;fillColor=none;align=center;verticalAlign=middle;whiteSpace=wrap;rounded=0;" vertex="1" parent="1">
          <mxGeometry x="-941.5" y="480" width="103" height="30" as="geometry" />
        </mxCell>
        <mxCell id="80irdVn88_xW3fS0YwoT-101" value="is a" style="text;html=1;strokeColor=none;fillColor=none;align=center;verticalAlign=middle;whiteSpace=wrap;rounded=0;" vertex="1" parent="1">
          <mxGeometry x="-768.5" y="410" width="103" height="30" as="geometry" />
        </mxCell>
        <mxCell id="80irdVn88_xW3fS0YwoT-102" value="External Ontology" style="rounded=1;whiteSpace=wrap;html=1;fillColor=#ffff88;strokeColor=#36393d;" vertex="1" parent="1">
          <mxGeometry x="65" y="970" width="230" height="60" as="geometry" />
        </mxCell>
        <mxCell id="80irdVn88_xW3fS0YwoT-103" style="edgeStyle=orthogonalEdgeStyle;rounded=0;orthogonalLoop=1;jettySize=auto;html=1;exitX=0.5;exitY=1;exitDx=0;exitDy=0;entryX=0.5;entryY=0;entryDx=0;entryDy=0;" edge="1" parent="1" source="80irdVn88_xW3fS0YwoT-61" target="80irdVn88_xW3fS0YwoT-102">
          <mxGeometry relative="1" as="geometry">
            <Array as="points">
              <mxPoint x="-670" y="930" />
              <mxPoint x="180" y="930" />
            </Array>
          </mxGeometry>
        </mxCell>
        <mxCell id="80irdVn88_xW3fS0YwoT-104" value="&lt;div align=&quot;left&quot;&gt;&lt;b&gt;External ontology mapping&lt;/b&gt;&lt;br&gt;&lt;/div&gt;&lt;div align=&quot;left&quot;&gt;Exact match&lt;/div&gt;&lt;div align=&quot;left&quot;&gt;&amp;nbsp;Equivalent class&lt;/div&gt;" style="text;html=1;align=left;verticalAlign=middle;resizable=0;points=[];autosize=1;strokeColor=none;fillColor=none;" vertex="1" parent="1">
          <mxGeometry x="-30" y="870" width="170" height="60" as="geometry" />
        </mxCell>
        <mxCell id="80irdVn88_xW3fS0YwoT-108" value="&lt;b&gt;Classes&lt;/b&gt;" style="text;html=1;strokeColor=none;fillColor=none;align=center;verticalAlign=middle;whiteSpace=wrap;rounded=0;" vertex="1" parent="1">
          <mxGeometry x="-751.5" y="240" width="60" height="30" as="geometry" />
        </mxCell>
        <mxCell id="80irdVn88_xW3fS0YwoT-112" value="subclass of" style="text;html=1;strokeColor=none;fillColor=none;align=center;verticalAlign=middle;whiteSpace=wrap;rounded=0;" vertex="1" parent="1">
          <mxGeometry x="-423" y="395" width="103" height="30" as="geometry" />
        </mxCell>
        <mxCell id="80irdVn88_xW3fS0YwoT-116" value="subproperty of" style="text;html=1;strokeColor=none;fillColor=none;align=center;verticalAlign=middle;whiteSpace=wrap;rounded=0;" vertex="1" parent="1">
          <mxGeometry x="210" y="625" width="103" height="30" as="geometry" />
        </mxCell>
        <mxCell id="80irdVn88_xW3fS0YwoT-118" value="&lt;div align=&quot;left&quot;&gt;&lt;b&gt;External ontology mapping&lt;/b&gt;&lt;br&gt;&lt;/div&gt;&lt;div align=&quot;left&quot;&gt;Equivalent property&lt;/div&gt;&lt;div align=&quot;left&quot;&gt;External sub/super property&lt;/div&gt;&lt;div align=&quot;left&quot;&gt;&amp;nbsp;Exact math&lt;/div&gt;" style="text;html=1;align=left;verticalAlign=middle;resizable=0;points=[];autosize=1;strokeColor=none;fillColor=none;" vertex="1" parent="1">
          <mxGeometry x="184" y="875" width="170" height="70" as="geometry" />
        </mxCell>
        <mxCell id="80irdVn88_xW3fS0YwoT-123" value="Constraints" style="rounded=1;whiteSpace=wrap;html=1;fillColor=#ffe6cc;strokeColor=#d79b00;" vertex="1" parent="1">
          <mxGeometry x="460" y="680" width="120" height="60" as="geometry" />
        </mxCell>
        <mxCell id="80irdVn88_xW3fS0YwoT-125" value="is constrainted by" style="text;html=1;align=center;verticalAlign=middle;resizable=0;points=[];autosize=1;strokeColor=none;fillColor=none;" vertex="1" parent="1">
          <mxGeometry x="340" y="680" width="120" height="30" as="geometry" />
        </mxCell>
        <mxCell id="80irdVn88_xW3fS0YwoT-126" value="&lt;div&gt;constraints usage&lt;/div&gt;&lt;div&gt;&lt;br&gt;&lt;/div&gt;" style="text;html=1;align=center;verticalAlign=middle;resizable=0;points=[];autosize=1;strokeColor=none;fillColor=none;" vertex="1" parent="1">
          <mxGeometry x="234" y="715" width="120" height="40" as="geometry" />
        </mxCell>
        <mxCell id="80irdVn88_xW3fS0YwoT-129" style="edgeStyle=orthogonalEdgeStyle;rounded=0;orthogonalLoop=1;jettySize=auto;html=1;endArrow=block;endFill=0;fillColor=#ffe6cc;strokeColor=#000000;" edge="1" parent="1" source="80irdVn88_xW3fS0YwoT-127" target="80irdVn88_xW3fS0YwoT-123">
          <mxGeometry relative="1" as="geometry" />
        </mxCell>
        <mxCell id="80irdVn88_xW3fS0YwoT-127" value="General" style="rounded=1;whiteSpace=wrap;html=1;fillColor=#ffe6cc;strokeColor=#d79b00;" vertex="1" parent="1">
          <mxGeometry x="630" y="630" width="120" height="60" as="geometry" />
        </mxCell>
        <mxCell id="80irdVn88_xW3fS0YwoT-130" style="edgeStyle=orthogonalEdgeStyle;rounded=0;orthogonalLoop=1;jettySize=auto;html=1;endArrow=block;endFill=0;fillColor=#ffe6cc;strokeColor=#000000;" edge="1" parent="1" source="80irdVn88_xW3fS0YwoT-128" target="80irdVn88_xW3fS0YwoT-123">
          <mxGeometry relative="1" as="geometry" />
        </mxCell>
        <mxCell id="80irdVn88_xW3fS0YwoT-128" value="Datatype based" style="rounded=1;whiteSpace=wrap;html=1;fillColor=#ffe6cc;strokeColor=#d79b00;" vertex="1" parent="1">
          <mxGeometry x="630" y="740" width="120" height="60" as="geometry" />
        </mxCell>
        <mxCell id="80irdVn88_xW3fS0YwoT-135" style="edgeStyle=orthogonalEdgeStyle;rounded=0;orthogonalLoop=1;jettySize=auto;html=1;endArrow=block;endFill=0;fillColor=#ffe6cc;strokeColor=#000000;" edge="1" parent="1" source="80irdVn88_xW3fS0YwoT-131" target="80irdVn88_xW3fS0YwoT-128">
          <mxGeometry relative="1" as="geometry" />
        </mxCell>
        <mxCell id="80irdVn88_xW3fS0YwoT-131" value="Item" style="rounded=1;whiteSpace=wrap;html=1;fillColor=#ffe6cc;strokeColor=#d79b00;" vertex="1" parent="1">
          <mxGeometry x="820" y="845" width="100" height="40" as="geometry" />
        </mxCell>
        <mxCell id="80irdVn88_xW3fS0YwoT-136" style="edgeStyle=orthogonalEdgeStyle;rounded=0;orthogonalLoop=1;jettySize=auto;html=1;endArrow=block;endFill=0;fillColor=#ffe6cc;strokeColor=#000000;" edge="1" parent="1" source="80irdVn88_xW3fS0YwoT-132" target="80irdVn88_xW3fS0YwoT-128">
          <mxGeometry relative="1" as="geometry" />
        </mxCell>
        <mxCell id="80irdVn88_xW3fS0YwoT-132" value="Time, String, Qunatity" style="rounded=1;whiteSpace=wrap;html=1;fillColor=#ffe6cc;strokeColor=#d79b00;" vertex="1" parent="1">
          <mxGeometry x="820" y="890" width="100" height="40" as="geometry" />
        </mxCell>
        <mxCell id="80irdVn88_xW3fS0YwoT-138" value="Allowed entity types" style="rounded=1;whiteSpace=wrap;html=1;fillColor=#ffe6cc;strokeColor=#d79b00;" vertex="1" parent="1">
          <mxGeometry x="1020" y="635" width="100" height="40" as="geometry" />
        </mxCell>
        <mxCell id="80irdVn88_xW3fS0YwoT-139" value="Property scope" style="rounded=1;whiteSpace=wrap;html=1;fillColor=#ffe6cc;strokeColor=#d79b00;" vertex="1" parent="1">
          <mxGeometry x="1020" y="585" width="100" height="40" as="geometry" />
        </mxCell>
        <mxCell id="80irdVn88_xW3fS0YwoT-140" value="Subject type" style="rounded=1;whiteSpace=wrap;html=1;fillColor=#ffe6cc;strokeColor=#d79b00;" vertex="1" parent="1">
          <mxGeometry x="1020" y="685" width="100" height="40" as="geometry" />
        </mxCell>
        <mxCell id="80irdVn88_xW3fS0YwoT-141" value="Conflicts with" style="rounded=1;whiteSpace=wrap;html=1;fillColor=#ffe6cc;strokeColor=#d79b00;" vertex="1" parent="1">
          <mxGeometry x="1133" y="585" width="100" height="40" as="geometry" />
        </mxCell>
        <mxCell id="80irdVn88_xW3fS0YwoT-142" value="Item Requires " style="rounded=1;whiteSpace=wrap;html=1;fillColor=#ffe6cc;strokeColor=#d79b00;" vertex="1" parent="1">
          <mxGeometry x="1133" y="635" width="100" height="40" as="geometry" />
        </mxCell>
        <mxCell id="80irdVn88_xW3fS0YwoT-143" value="Allowed qualifiers" style="rounded=1;whiteSpace=wrap;html=1;fillColor=#ffe6cc;strokeColor=#d79b00;" vertex="1" parent="1">
          <mxGeometry x="1133" y="685" width="100" height="40" as="geometry" />
        </mxCell>
        <mxCell id="80irdVn88_xW3fS0YwoT-145" value="Required qualifiers" style="rounded=1;whiteSpace=wrap;html=1;fillColor=#ffe6cc;strokeColor=#d79b00;" vertex="1" parent="1">
          <mxGeometry x="1243" y="585" width="100" height="40" as="geometry" />
        </mxCell>
        <mxCell id="80irdVn88_xW3fS0YwoT-146" value="" style="rounded=1;whiteSpace=wrap;html=1;fillColor=#ffe6cc;strokeColor=#d79b00;" vertex="1" parent="1">
          <mxGeometry x="1263" y="675" width="10" height="10" as="geometry" />
        </mxCell>
        <mxCell id="80irdVn88_xW3fS0YwoT-147" value="" style="rounded=1;whiteSpace=wrap;html=1;fillColor=#ffe6cc;strokeColor=#d79b00;" vertex="1" parent="1">
          <mxGeometry x="1288" y="675" width="10" height="10" as="geometry" />
        </mxCell>
        <mxCell id="80irdVn88_xW3fS0YwoT-148" value="" style="rounded=1;whiteSpace=wrap;html=1;fillColor=#ffe6cc;strokeColor=#d79b00;" vertex="1" parent="1">
          <mxGeometry x="1313" y="675" width="10" height="10" as="geometry" />
        </mxCell>
        <mxCell id="80irdVn88_xW3fS0YwoT-151" style="edgeStyle=orthogonalEdgeStyle;rounded=0;orthogonalLoop=1;jettySize=auto;html=1;endArrow=block;endFill=0;fillColor=#ffe6cc;strokeColor=#000000;" edge="1" parent="1" source="80irdVn88_xW3fS0YwoT-149" target="80irdVn88_xW3fS0YwoT-127">
          <mxGeometry relative="1" as="geometry" />
        </mxCell>
        <mxCell id="80irdVn88_xW3fS0YwoT-149" value="" style="rounded=1;whiteSpace=wrap;html=1;fillColor=none;strokeColor=#171100;dashed=1;" vertex="1" parent="1">
          <mxGeometry x="990" y="565" width="400" height="190" as="geometry" />
        </mxCell>
        <mxCell id="80irdVn88_xW3fS0YwoT-152" value="None of" style="rounded=1;whiteSpace=wrap;html=1;fillColor=#ffe6cc;strokeColor=#d79b00;" vertex="1" parent="1">
          <mxGeometry x="1020" y="840" width="100" height="40" as="geometry" />
        </mxCell>
        <mxCell id="80irdVn88_xW3fS0YwoT-153" value="Value type" style="rounded=1;whiteSpace=wrap;html=1;fillColor=#ffe6cc;strokeColor=#d79b00;" vertex="1" parent="1">
          <mxGeometry x="1020" y="790" width="100" height="40" as="geometry" />
        </mxCell>
        <mxCell id="80irdVn88_xW3fS0YwoT-154" value="One of" style="rounded=1;whiteSpace=wrap;html=1;fillColor=#ffe6cc;strokeColor=#d79b00;" vertex="1" parent="1">
          <mxGeometry x="1020" y="890" width="100" height="40" as="geometry" />
        </mxCell>
        <mxCell id="80irdVn88_xW3fS0YwoT-155" value="Value requires constraint" style="rounded=1;whiteSpace=wrap;html=1;fillColor=#ffe6cc;strokeColor=#d79b00;" vertex="1" parent="1">
          <mxGeometry x="1133" y="790" width="100" height="40" as="geometry" />
        </mxCell>
        <mxCell id="80irdVn88_xW3fS0YwoT-156" value="Inverse" style="rounded=1;whiteSpace=wrap;html=1;fillColor=#ffe6cc;strokeColor=#d79b00;" vertex="1" parent="1">
          <mxGeometry x="1133" y="840" width="100" height="40" as="geometry" />
        </mxCell>
        <mxCell id="80irdVn88_xW3fS0YwoT-157" value="Symmetric" style="rounded=1;whiteSpace=wrap;html=1;fillColor=#ffe6cc;strokeColor=#d79b00;" vertex="1" parent="1">
          <mxGeometry x="1133" y="890" width="100" height="40" as="geometry" />
        </mxCell>
        <mxCell id="80irdVn88_xW3fS0YwoT-159" value="" style="rounded=1;whiteSpace=wrap;html=1;fillColor=#ffe6cc;strokeColor=#d79b00;" vertex="1" parent="1">
          <mxGeometry x="1263" y="880" width="10" height="10" as="geometry" />
        </mxCell>
        <mxCell id="80irdVn88_xW3fS0YwoT-160" value="" style="rounded=1;whiteSpace=wrap;html=1;fillColor=#ffe6cc;strokeColor=#d79b00;" vertex="1" parent="1">
          <mxGeometry x="1288" y="880" width="10" height="10" as="geometry" />
        </mxCell>
        <mxCell id="80irdVn88_xW3fS0YwoT-161" value="" style="rounded=1;whiteSpace=wrap;html=1;fillColor=#ffe6cc;strokeColor=#d79b00;" vertex="1" parent="1">
          <mxGeometry x="1313" y="880" width="10" height="10" as="geometry" />
        </mxCell>
        <mxCell id="om_5iVjqHlGBKNzXRzjz-2" value="Datatype" style="rounded=1;whiteSpace=wrap;html=1;fillColor=#f8cecc;strokeColor=#b85450;" vertex="1" parent="1">
          <mxGeometry x="-120" y="585" width="70" height="30" as="geometry" />
        </mxCell>
        <mxCell id="om_5iVjqHlGBKNzXRzjz-7" value="scope" style="rounded=1;whiteSpace=wrap;html=1;fillColor=#f8cecc;strokeColor=#b85450;" vertex="1" parent="1">
          <mxGeometry x="-120" y="690" width="70" height="30" as="geometry" />
        </mxCell>
        <mxCell id="om_5iVjqHlGBKNzXRzjz-8" value="allowed entitied" style="rounded=1;whiteSpace=wrap;html=1;fillColor=#f8cecc;strokeColor=#b85450;" vertex="1" parent="1">
          <mxGeometry x="-120" y="635" width="70" height="30" as="geometry" />
        </mxCell>
        <mxCell id="om_5iVjqHlGBKNzXRzjz-12" value="subject type" style="rounded=1;whiteSpace=wrap;html=1;fillColor=#f8cecc;strokeColor=#b85450;" vertex="1" parent="1">
          <mxGeometry x="-120" y="745" width="70" height="30" as="geometry" />
        </mxCell>
        <mxCell id="G0yosXXr6ke0HUazRT5J-2" value="instance of " style="text;html=1;strokeColor=none;fillColor=none;align=center;verticalAlign=middle;whiteSpace=wrap;rounded=0;" vertex="1" parent="1">
          <mxGeometry x="-243" y="310" width="103" height="30" as="geometry" />
        </mxCell>
        <mxCell id="G0yosXXr6ke0HUazRT5J-6" value="Uses" style="text;html=1;strokeColor=none;fillColor=none;align=center;verticalAlign=middle;whiteSpace=wrap;rounded=0;" vertex="1" parent="1">
          <mxGeometry x="124" y="645" width="60" height="30" as="geometry" />
        </mxCell>
        <mxCell id="G0yosXXr6ke0HUazRT5J-8" value="has value of" style="text;html=1;align=center;verticalAlign=middle;resizable=0;points=[];autosize=1;strokeColor=none;fillColor=none;" vertex="1" parent="1">
          <mxGeometry x="-50" y="595" width="90" height="30" as="geometry" />
        </mxCell>
        <mxCell id="G0yosXXr6ke0HUazRT5J-10" value="is allowed on entities" style="text;html=1;align=center;verticalAlign=middle;resizable=0;points=[];autosize=1;strokeColor=none;fillColor=none;" vertex="1" parent="1">
          <mxGeometry x="-65" y="655" width="140" height="30" as="geometry" />
        </mxCell>
        <mxCell id="G0yosXXr6ke0HUazRT5J-12" value="is allowed in stmt placement" style="text;html=1;align=center;verticalAlign=middle;resizable=0;points=[];autosize=1;strokeColor=none;fillColor=none;" vertex="1" parent="1">
          <mxGeometry x="-105" y="715" width="180" height="30" as="geometry" />
        </mxCell>
        <mxCell id="G0yosXXr6ke0HUazRT5J-14" value="subject should be of type" style="text;html=1;align=center;verticalAlign=middle;resizable=0;points=[];autosize=1;strokeColor=none;fillColor=none;" vertex="1" parent="1">
          <mxGeometry x="-85" y="770" width="160" height="30" as="geometry" />
        </mxCell>
        <mxCell id="G0yosXXr6ke0HUazRT5J-17" value="constraints values of property" style="text;html=1;strokeColor=none;fillColor=none;align=center;verticalAlign=middle;whiteSpace=wrap;rounded=0;" vertex="1" parent="1">
          <mxGeometry x="560" y="800" width="60" height="30" as="geometry" />
        </mxCell>
        <mxCell id="G0yosXXr6ke0HUazRT5J-18" value="constraints usage of property" style="text;html=1;strokeColor=none;fillColor=none;align=center;verticalAlign=middle;whiteSpace=wrap;rounded=0;" vertex="1" parent="1">
          <mxGeometry x="550" y="600" width="60" height="30" as="geometry" />
        </mxCell>
      </root>
    </mxGraphModel>
  </diagram>
</mxfile>
